<?xml version="1.0"?>
<svg version="1.1" xmlns="http://www.w3.org/2000/svg" width="150" height="51" style=""><path fill="#e6f4ff" d="M21.357421875,42.2890625l-4.169921875,0l0-21.2734375l4.169921875,0l0,21.2734375z M33.98708984375,29.68359375q-1.326171875,0-2.078125,0.8408203125t-0.861328125,2.3857421875l5.8515625,0q-0.02734375-1.544921875-0.806640625-2.3857421875t-2.10546875-0.8408203125z M34.57498046875,42.5625q-3.69140625,0-5.76953125-2.037109375t-2.078125-5.76953125q0-3.841796875,1.9208984375-5.9404296875t5.3115234375-2.0986328125q3.240234375,0,5.044921875,1.845703125t1.8046875,5.099609375l0,2.0234375l-9.857421875,0q0.068359375,1.77734375,1.052734375,2.775390625t2.76171875,0.998046875q1.380859375,0,2.611328125-0.287109375t2.5703125-0.916015625l0,3.2265625q-1.09375,0.546875-2.337890625,0.8134765625t-3.03515625,0.2666015625z M50.9644140625,42.5625q-2.693359375,0-4.2314453125-2.091796875t-1.5380859375-5.796875q0-3.759765625,1.5654296875-5.8583984375t4.3134765625-2.0986328125q2.884765625,0,4.40234375,2.2421875l0.13671875,0q-0.314453125-1.708984375-0.314453125-3.048828125l0-4.89453125l4.18359375,0l0,21.2734375l-3.19921875,0l-0.806640625-1.982421875l-0.177734375,0q-1.421875,2.255859375-4.333984375,2.255859375z M52.4273046875,39.240234375q1.599609375,0,2.3447265625-0.9296875t0.8134765625-3.158203125l0-0.451171875q0-2.4609375-0.7587890625-3.52734375t-2.4677734375-1.06640625q-1.39453125,0-2.1669921875,1.1826171875t-0.7724609375,3.4384765625t0.779296875,3.3837890625t2.228515625,1.1279296875z M79.07064453125,27.00390625l0,2.119140625l-2.392578125,0.615234375q0.65625,1.025390625,0.65625,2.296875q0,2.4609375-1.7158203125,3.8349609375t-4.7646484375,1.3740234375l-0.751953125-0.041015625l-0.615234375-0.068359375q-0.642578125,0.4921875-0.642578125,1.09375q0,0.90234375,2.296875,0.90234375l2.59765625,0q2.515625,0,3.8349609375,1.080078125t1.3193359375,3.171875q0,2.6796875-2.2353515625,4.15625t-6.4189453125,1.4765625q-3.19921875,0-4.8876953125-1.1142578125t-1.6884765625-3.1240234375q0-1.380859375,0.861328125-2.310546875t2.529296875-1.326171875q-0.642578125-0.2734375-1.12109375-0.8955078125t-0.478515625-1.3193359375q0-0.875,0.505859375-1.4560546875t1.462890625-1.1416015625q-1.203125-0.51953125-1.9072265625-1.66796875t-0.7041015625-2.70703125q0-2.501953125,1.626953125-3.869140625t4.6484375-1.3671875q0.642578125,0,1.5244140625,0.1162109375t1.1279296875,0.1708984375l5.33203125,0z M67.27181640625,44.44921875q0,0.861328125,0.8271484375,1.353515625t2.3173828125,0.4921875q2.2421875,0,3.513671875-0.615234375t1.271484375-1.681640625q0-0.861328125-0.751953125-1.189453125t-2.32421875-0.328125l-2.16015625,0q-1.1484375,0-1.9208984375,0.5400390625t-0.7724609375,1.4287109375z M68.78939453125,32.0078125q0,1.244140625,0.5673828125,1.96875t1.7294921875,0.724609375q1.17578125,0,1.72265625-0.724609375t0.546875-1.96875q0-2.76171875-2.26953125-2.76171875q-2.296875,0-2.296875,2.76171875z M89.8409375,29.68359375q-1.326171875,0-2.078125,0.8408203125t-0.861328125,2.3857421875l5.8515625,0q-0.02734375-1.544921875-0.806640625-2.3857421875t-2.10546875-0.8408203125z M90.428828125,42.5625q-3.69140625,0-5.76953125-2.037109375t-2.078125-5.76953125q0-3.841796875,1.9208984375-5.9404296875t5.3115234375-2.0986328125q3.240234375,0,5.044921875,1.845703125t1.8046875,5.099609375l0,2.0234375l-9.857421875,0q0.068359375,1.77734375,1.052734375,2.775390625t2.76171875,0.998046875q1.380859375,0,2.611328125-0.287109375t2.5703125-0.916015625l0,3.2265625q-1.09375,0.546875-2.337890625,0.8134765625t-3.03515625,0.2666015625z M110.50966796875,26.716796875q0.84765625,0,1.408203125,0.123046875l-0.314453125,3.91015625q-0.505859375-0.13671875-1.23046875-0.13671875q-1.99609375,0-3.1103515625,1.025390625t-1.1142578125,2.87109375l0,7.779296875l-4.169921875,0l0-15.28515625l3.158203125,0l0.615234375,2.5703125l0.205078125,0q0.7109375-1.28515625,1.9208984375-2.0712890625t2.6318359375-0.7861328125z M127.2819140625,37.75q0,2.3515625-1.6337890625,3.58203125t-4.8876953125,1.23046875q-1.66796875,0-2.84375-0.2255859375t-2.201171875-0.6630859375l0-3.4453125q1.162109375,0.546875,2.6181640625,0.916015625t2.5634765625,0.369140625q2.26953125,0,2.26953125-1.3125q0-0.4921875-0.30078125-0.7998046875t-1.0390625-0.697265625t-1.96875-0.9091796875q-1.763671875-0.73828125-2.5908203125-1.3671875t-1.203125-1.4423828125t-0.3759765625-2.0029296875q0-2.037109375,1.5791015625-3.1513671875t4.4775390625-1.1142578125q2.76171875,0,5.373046875,1.203125l-1.2578125,3.0078125q-1.1484375-0.4921875-2.146484375-0.806640625t-2.037109375-0.314453125q-1.845703125,0-1.845703125,0.998046875q0,0.560546875,0.5947265625,0.970703125t2.6044921875,1.216796875q1.791015625,0.724609375,2.625,1.353515625t1.23046875,1.44921875t0.396484375,1.955078125z"/><path fill="#" d=""/></svg>
